<svg xmlns="http://www.w3.org/2000/svg" viewBox="590 640 240 240"><defs><g/><clipPath id="533daaf8fc"><path d="M 485.566406 283.714844 L 1340.605469 283.714844 L 1340.605469 1137.964844 L 485.566406 1137.964844 Z M 485.566406 283.714844 " clip-rule="nonzero"/></clipPath><clipPath id="48facfbacf"><path d="M 944.410156 448.304688 C 962.457031 423.285156 984.488281 419.617188 1008.707031 427.664062 C 992.023438 449.464844 971.390625 458.863281 944.410156 448.304688 M 1034.707031 420.386719 C 1074.21875 387.050781 1111.535156 390.042969 1147.644531 412.964844 C 1111.660156 441.628906 1074.292969 448.539062 1034.707031 420.386719 Z M 1171.339844 413.324219 C 1234.96875 411.398438 1263.082031 443.648438 1271.566406 494.765625 C 1213.886719 493.914062 1177.042969 470.820312 1171.339844 413.324219 Z M 1277.480469 510.527344 C 1300.386719 531.195312 1301.632812 553.492188 1290.992188 576.6875 C 1271.140625 557.730469 1264.050781 536.203125 1277.480469 510.527344 Z M 1071.550781 499.191406 C 1099.691406 486.542969 1120.605469 494.382812 1137.558594 513.460938 C 1112.210938 524 1089.640625 521.824219 1071.550781 499.191406 Z M 1163.710938 520.160156 C 1214.601562 511.050781 1245.421875 532.300781 1265.230469 570.203125 C 1219.734375 577.035156 1183.917969 564.332031 1163.710938 520.160156 Z M 1285.574219 582.359375 C 1341.636719 612.507812 1349.863281 654.492188 1331.652344 703.003906 C 1282.121094 673.425781 1261.761719 635 1285.574219 582.359375 Z M 1328.894531 719.613281 C 1338.390625 748.964844 1328.324219 768.898438 1307.515625 783.667969 C 1299.800781 757.320312 1304.421875 735.132812 1328.894531 719.613281 Z M 986.492188 492.628906 C 1013.074219 476.972656 1034.71875 482.460938 1053.667969 499.5625 C 1029.632812 512.828125 1006.96875 513.140625 986.492188 492.628906 Z M 1156.21875 606.828125 C 1186.910156 609.949219 1201.105469 627.191406 1206.246094 652.191406 C 1179.027344 648.644531 1160.566406 635.472656 1156.21875 606.828125 Z M 1225.546875 671.066406 C 1274.171875 688.621094 1290.242188 722.4375 1288.441406 765.164062 C 1245.628906 748.332031 1220.960938 719.425781 1225.546875 671.066406 Z M 1299.980469 785.867188 C 1333.460938 840.003906 1319.589844 880.480469 1279.5625 913.386719 C 1251.460938 863.003906 1253.039062 819.546875 1299.980469 785.867188 Z M 1268.871094 926.390625 C 1262.421875 956.558594 1243.738281 968.785156 1218.328125 971.171875 C 1224.820312 944.5 1239.917969 927.59375 1268.871094 926.390625 Z M 1085.835938 558.617188 C 1116.679688 558.347656 1132.683594 573.925781 1140.542969 598.207031 C 1113.097656 597.679688 1093.3125 586.617188 1085.835938 558.617188 Z M 1175.722656 742.378906 C 1200.746094 760.425781 1204.417969 782.457031 1196.367188 806.675781 C 1174.566406 789.996094 1165.167969 769.359375 1175.722656 742.378906 Z M 1203.648438 832.675781 C 1236.976562 872.191406 1233.988281 909.511719 1211.0625 945.613281 C 1182.402344 909.628906 1175.492188 872.261719 1203.648438 832.675781 Z M 1210.707031 969.308594 C 1212.628906 1032.941406 1180.386719 1061.054688 1129.265625 1069.539062 C 1130.121094 1011.855469 1153.210938 975.007812 1210.707031 969.308594 Z M 1113.5 1075.453125 C 1092.835938 1098.355469 1070.539062 1099.601562 1047.339844 1088.964844 C 1066.296875 1069.113281 1087.828125 1062.019531 1113.5 1075.453125 Z M 1138.875 665.4375 C 1165.726562 680.625 1171.792969 702.117188 1166.460938 727.074219 C 1142.957031 712.898438 1131.347656 693.421875 1138.875 665.4375 Z M 1124.839844 869.523438 C 1137.488281 897.664062 1129.648438 918.578125 1110.570312 935.527344 C 1100.027344 910.183594 1102.207031 887.609375 1124.839844 869.523438 Z M 1103.871094 961.683594 C 1112.976562 1012.570312 1091.730469 1043.398438 1053.824219 1063.199219 C 1047 1017.703125 1059.695312 981.886719 1103.871094 961.683594 Z M 1041.667969 1083.542969 C 1011.519531 1139.613281 969.535156 1147.835938 921.023438 1129.621094 C 950.605469 1080.09375 989.03125 1059.726562 1041.667969 1083.542969 Z M 904.417969 1126.867188 C 875.066406 1136.363281 855.132812 1126.296875 840.367188 1105.488281 C 866.707031 1097.769531 888.894531 1102.390625 904.417969 1126.867188 Z M 1131.398438 784.464844 C 1147.054688 811.046875 1141.570312 832.691406 1124.46875 851.640625 C 1111.203125 827.609375 1110.890625 804.9375 1131.398438 784.464844 Z M 1017.199219 954.191406 C 1014.082031 984.882812 996.835938 999.078125 971.835938 1004.214844 C 975.378906 976.996094 988.558594 958.535156 1017.199219 954.191406 Z M 952.964844 1023.515625 C 935.40625 1072.140625 901.59375 1088.214844 858.863281 1086.410156 C 875.699219 1043.597656 904.605469 1018.925781 952.964844 1023.515625 Z M 838.164062 1097.949219 C 784.019531 1131.429688 743.550781 1117.558594 710.644531 1077.535156 C 761.023438 1049.429688 804.484375 1051.007812 838.164062 1097.949219 Z M 697.640625 1066.84375 C 667.46875 1060.394531 655.246094 1041.703125 652.859375 1016.300781 C 679.53125 1022.792969 696.433594 1037.886719 697.640625 1066.84375 Z M 1065.410156 883.804688 C 1065.679688 914.65625 1050.105469 930.65625 1025.820312 938.515625 C 1026.347656 911.074219 1037.410156 891.28125 1065.410156 883.804688 Z M 881.652344 973.695312 C 863.605469 998.714844 841.570312 1002.382812 817.351562 994.335938 C 834.039062 972.535156 854.667969 963.136719 881.652344 973.695312 Z M 791.351562 1001.613281 C 751.839844 1034.953125 714.523438 1031.960938 678.414062 1009.03125 C 714.398438 980.371094 751.769531 973.464844 791.351562 1001.613281 Z M 654.71875 1008.675781 C 591.085938 1010.601562 562.972656 978.355469 554.496094 927.238281 C 612.175781 928.085938 649.023438 951.179688 654.71875 1008.675781 Z M 548.578125 911.472656 C 525.675781 890.808594 524.421875 868.507812 535.066406 845.308594 C 554.917969 864.265625 562.011719 885.796875 548.578125 911.472656 Z M 958.589844 936.84375 C 943.402344 963.695312 921.90625 969.765625 896.953125 964.433594 C 911.136719 940.929688 930.609375 929.320312 958.589844 936.84375 Z M 754.507812 922.8125 C 726.371094 935.457031 705.453125 927.613281 688.503906 908.539062 C 713.847656 898 736.417969 900.175781 754.507812 922.8125 Z M 662.351562 901.839844 C 611.457031 910.957031 580.636719 889.703125 560.832031 851.796875 C 606.328125 844.96875 642.144531 857.667969 662.351562 901.839844 Z M 540.492188 839.636719 C 484.421875 809.488281 476.195312 767.507812 494.414062 719 C 543.941406 748.574219 564.300781 787 540.492188 839.636719 Z M 497.167969 702.386719 C 487.664062 673.042969 497.730469 653.101562 518.546875 638.332031 C 526.265625 664.675781 521.640625 686.867188 497.167969 702.386719 Z M 839.5625 929.363281 C 812.988281 945.023438 791.339844 939.535156 772.394531 922.4375 C 796.421875 909.175781 819.09375 908.859375 839.5625 929.363281 Z M 669.839844 815.175781 C 639.148438 812.054688 624.953125 794.804688 619.8125 769.808594 C 647.03125 773.355469 665.492188 786.523438 669.839844 815.175781 Z M 600.519531 750.929688 C 551.886719 733.382812 535.820312 699.566406 537.621094 656.835938 C 580.433594 673.667969 605.097656 702.574219 600.519531 750.929688 Z M 526.085938 636.132812 C 492.597656 581.992188 506.464844 541.515625 546.5 508.617188 C 574.601562 558.996094 573.023438 602.453125 526.085938 636.132812 Z M 557.1875 495.609375 C 563.632812 465.441406 582.320312 453.207031 607.734375 450.824219 C 601.246094 477.496094 586.140625 494.40625 557.1875 495.609375 Z M 740.230469 863.371094 C 709.382812 863.652344 693.378906 848.070312 685.519531 823.792969 C 712.957031 824.320312 732.75 835.382812 740.230469 863.371094 Z M 650.332031 679.621094 C 625.3125 661.574219 621.648438 639.539062 629.695312 615.324219 C 651.496094 632.003906 660.890625 652.636719 650.332031 679.621094 Z M 622.425781 589.324219 C 589.078125 549.808594 592.074219 512.488281 615 476.386719 C 643.660156 512.371094 650.566406 549.738281 622.425781 589.324219 Z M 615.359375 452.691406 C 613.429688 389.058594 645.675781 360.941406 696.796875 352.464844 C 695.941406 410.144531 672.847656 446.996094 615.359375 452.691406 Z M 712.5625 346.546875 C 733.222656 323.644531 755.523438 322.394531 778.722656 333.035156 C 759.769531 352.890625 738.234375 359.980469 712.5625 346.546875 Z M 687.195312 756.558594 C 660.339844 741.375 654.269531 719.882812 659.601562 694.925781 C 683.101562 709.097656 694.714844 728.578125 687.195312 756.558594 Z M 701.214844 552.480469 C 688.574219 524.34375 696.414062 503.425781 715.492188 486.480469 C 726.035156 511.820312 723.855469 534.390625 701.214844 552.480469 Z M 722.195312 460.328125 C 713.074219 409.429688 734.328125 378.605469 772.234375 358.804688 C 779.0625 404.300781 766.359375 440.117188 722.195312 460.328125 Z M 784.394531 338.464844 C 814.539062 282.390625 856.523438 274.167969 905.03125 292.386719 C 875.453125 341.910156 837.03125 362.273438 784.394531 338.464844 Z M 921.640625 295.140625 C 950.988281 285.640625 970.925781 295.707031 985.695312 316.523438 C 959.355469 324.238281 937.160156 319.613281 921.640625 295.140625 Z M 694.667969 637.539062 C 679.007812 610.960938 684.496094 589.308594 701.589844 570.363281 C 714.851562 594.390625 715.167969 617.066406 694.667969 637.539062 Z M 808.855469 467.8125 C 811.976562 437.121094 829.222656 422.929688 854.21875 417.789062 C 850.675781 445.003906 837.503906 463.464844 808.855469 467.8125 Z M 873.097656 398.492188 C 890.648438 349.855469 924.46875 333.785156 967.195312 335.589844 C 950.359375 378.40625 921.453125 403.070312 873.097656 398.492188 Z M 987.894531 324.058594 C 1042.039062 290.570312 1082.507812 304.441406 1115.40625 344.472656 C 1065.035156 372.570312 1021.574219 370.996094 987.894531 324.058594 Z M 1128.421875 355.160156 C 1158.585938 361.609375 1170.816406 380.296875 1173.203125 405.703125 C 1146.53125 399.21875 1129.621094 384.117188 1128.421875 355.160156 Z M 760.65625 538.195312 C 760.378906 507.351562 775.960938 491.34375 800.238281 483.484375 C 799.710938 510.921875 788.644531 530.722656 760.65625 538.195312 Z M 867.464844 485.15625 C 882.65625 458.304688 904.144531 452.234375 929.105469 457.566406 C 914.925781 481.074219 895.453125 492.679688 867.464844 485.15625 Z M 867.464844 485.15625 " clip-rule="nonzero"/></clipPath><linearGradient x1="-12.168118" gradientTransform="matrix(0.292822, 0, 0, 0.292822, 476.194622, 274.167938)" y1="1444.761025" x2="2996.133539" gradientUnits="userSpaceOnUse" y2="1538.851674" id="5c593d8543"><stop stop-opacity="1" stop-color="rgb(0%, 59.21936%, 69.799805%)" offset="0"/><stop stop-opacity="1" stop-color="rgb(0%, 59.21936%, 69.799805%)" offset="0.0303012"/><stop stop-opacity="1" stop-color="rgb(0%, 59.21936%, 69.799805%)" offset="0.125"/><stop stop-opacity="1" stop-color="rgb(0%, 59.21936%, 69.799805%)" offset="0.1875"/><stop stop-opacity="1" stop-color="rgb(0%, 59.21936%, 69.799805%)" offset="0.21875"/><stop stop-opacity="1" stop-color="rgb(0%, 59.21936%, 69.799805%)" offset="0.234375"/><stop stop-opacity="1" stop-color="rgb(0%, 59.132385%, 69.718933%)" offset="0.242188"/><stop stop-opacity="1" stop-color="rgb(0%, 58.770752%, 69.38324%)" offset="0.246094"/><stop stop-opacity="1" stop-color="rgb(0%, 58.494568%, 69.126892%)" offset="0.25"/><stop stop-opacity="1" stop-color="rgb(0%, 58.218384%, 68.869019%)" offset="0.253906"/><stop stop-opacity="1" stop-color="rgb(0%, 57.9422%, 68.612671%)" offset="0.257812"/><stop stop-opacity="1" stop-color="rgb(0%, 57.666016%, 68.356323%)" offset="0.261719"/><stop stop-opacity="1" stop-color="rgb(0%, 57.389832%, 68.099976%)" offset="0.265625"/><stop stop-opacity="1" stop-color="rgb(0%, 57.113647%, 67.843628%)" offset="0.269531"/><stop stop-opacity="1" stop-color="rgb(0%, 56.838989%, 67.58728%)" offset="0.273438"/><stop stop-opacity="1" stop-color="rgb(0%, 56.562805%, 67.330933%)" offset="0.277344"/><stop stop-opacity="1" stop-color="rgb(0%, 56.286621%, 67.074585%)" offset="0.28125"/><stop stop-opacity="1" stop-color="rgb(0%, 56.010437%, 66.818237%)" offset="0.285156"/><stop stop-opacity="1" stop-color="rgb(0%, 55.734253%, 66.56189%)" offset="0.289062"/><stop stop-opacity="1" stop-color="rgb(0%, 55.458069%, 66.305542%)" offset="0.292969"/><stop stop-opacity="1" stop-color="rgb(0%, 55.181885%, 66.049194%)" offset="0.296875"/><stop stop-opacity="1" stop-color="rgb(0%, 54.905701%, 65.792847%)" offset="0.300781"/><stop stop-opacity="1" stop-color="rgb(0%, 54.629517%, 65.536499%)" offset="0.304688"/><stop stop-opacity="1" stop-color="rgb(0%, 54.353333%, 65.280151%)" offset="0.308594"/><stop stop-opacity="1" stop-color="rgb(0%, 54.078674%, 65.023804%)" offset="0.3125"/><stop stop-opacity="1" stop-color="rgb(0%, 53.80249%, 64.767456%)" offset="0.316406"/><stop stop-opacity="1" stop-color="rgb(0%, 53.526306%, 64.511108%)" offset="0.320312"/><stop stop-opacity="1" stop-color="rgb(0%, 53.250122%, 64.254761%)" offset="0.324219"/><stop stop-opacity="1" stop-color="rgb(0%, 52.973938%, 63.998413%)" offset="0.328125"/><stop stop-opacity="1" stop-color="rgb(0%, 52.697754%, 63.74054%)" offset="0.332031"/><stop stop-opacity="1" stop-color="rgb(0%, 52.42157%, 63.484192%)" offset="0.335938"/><stop stop-opacity="1" stop-color="rgb(0%, 52.145386%, 63.227844%)" offset="0.339844"/><stop stop-opacity="1" stop-color="rgb(0%, 51.869202%, 62.971497%)" offset="0.34375"/><stop stop-opacity="1" stop-color="rgb(0%, 51.593018%, 62.715149%)" offset="0.347656"/><stop stop-opacity="1" stop-color="rgb(0%, 51.316833%, 62.458801%)" offset="0.351562"/><stop stop-opacity="1" stop-color="rgb(0%, 51.040649%, 62.202454%)" offset="0.355469"/><stop stop-opacity="1" stop-color="rgb(0%, 50.765991%, 61.946106%)" offset="0.359375"/><stop stop-opacity="1" stop-color="rgb(0%, 50.489807%, 61.689758%)" offset="0.363281"/><stop stop-opacity="1" stop-color="rgb(0%, 50.213623%, 61.433411%)" offset="0.367188"/><stop stop-opacity="1" stop-color="rgb(0%, 49.937439%, 61.177063%)" offset="0.371094"/><stop stop-opacity="1" stop-color="rgb(0%, 49.661255%, 60.920715%)" offset="0.375"/><stop stop-opacity="1" stop-color="rgb(0%, 49.385071%, 60.664368%)" offset="0.378906"/><stop stop-opacity="1" stop-color="rgb(0%, 49.108887%, 60.40802%)" offset="0.382812"/><stop stop-opacity="1" stop-color="rgb(0%, 48.832703%, 60.151672%)" offset="0.386719"/><stop stop-opacity="1" stop-color="rgb(0%, 48.556519%, 59.895325%)" offset="0.390625"/><stop stop-opacity="1" stop-color="rgb(0%, 48.280334%, 59.638977%)" offset="0.394531"/><stop stop-opacity="1" stop-color="rgb(0%, 48.00415%, 59.382629%)" offset="0.398438"/><stop stop-opacity="1" stop-color="rgb(0%, 47.727966%, 59.124756%)" offset="0.402344"/><stop stop-opacity="1" stop-color="rgb(0%, 47.453308%, 58.868408%)" offset="0.40625"/><stop stop-opacity="1" stop-color="rgb(0%, 47.177124%, 58.612061%)" offset="0.410156"/><stop stop-opacity="1" stop-color="rgb(0%, 46.90094%, 58.355713%)" offset="0.414062"/><stop stop-opacity="1" stop-color="rgb(0%, 46.624756%, 58.099365%)" offset="0.417969"/><stop stop-opacity="1" stop-color="rgb(0%, 46.348572%, 57.843018%)" offset="0.421875"/><stop stop-opacity="1" stop-color="rgb(0%, 46.072388%, 57.58667%)" offset="0.425781"/><stop stop-opacity="1" stop-color="rgb(0%, 45.796204%, 57.330322%)" offset="0.429688"/><stop stop-opacity="1" stop-color="rgb(0%, 45.52002%, 57.073975%)" offset="0.433594"/><stop stop-opacity="1" stop-color="rgb(0%, 45.243835%, 56.817627%)" offset="0.4375"/><stop stop-opacity="1" stop-color="rgb(0%, 44.967651%, 56.561279%)" offset="0.441406"/><stop stop-opacity="1" stop-color="rgb(0%, 44.692993%, 56.304932%)" offset="0.445313"/><stop stop-opacity="1" stop-color="rgb(0%, 44.416809%, 56.048584%)" offset="0.449219"/><stop stop-opacity="1" stop-color="rgb(0%, 44.140625%, 55.792236%)" offset="0.453125"/><stop stop-opacity="1" stop-color="rgb(0%, 43.864441%, 55.535889%)" offset="0.457031"/><stop stop-opacity="1" stop-color="rgb(0%, 43.588257%, 55.279541%)" offset="0.460938"/><stop stop-opacity="1" stop-color="rgb(0%, 43.312073%, 55.023193%)" offset="0.464844"/><stop stop-opacity="1" stop-color="rgb(0%, 43.035889%, 54.766846%)" offset="0.46875"/><stop stop-opacity="1" stop-color="rgb(0%, 42.759705%, 54.510498%)" offset="0.472656"/><stop stop-opacity="1" stop-color="rgb(0%, 42.483521%, 54.25415%)" offset="0.476562"/><stop stop-opacity="1" stop-color="rgb(0%, 42.207336%, 53.996277%)" offset="0.480469"/><stop stop-opacity="1" stop-color="rgb(0%, 41.931152%, 53.739929%)" offset="0.484375"/><stop stop-opacity="1" stop-color="rgb(0%, 41.654968%, 53.483582%)" offset="0.488281"/><stop stop-opacity="1" stop-color="rgb(0%, 41.38031%, 53.227234%)" offset="0.492188"/><stop stop-opacity="1" stop-color="rgb(0%, 41.104126%, 52.970886%)" offset="0.496094"/><stop stop-opacity="1" stop-color="rgb(0%, 40.827942%, 52.714539%)" offset="0.5"/><stop stop-opacity="1" stop-color="rgb(0%, 40.551758%, 52.458191%)" offset="0.503906"/><stop stop-opacity="1" stop-color="rgb(0%, 40.275574%, 52.201843%)" offset="0.507812"/><stop stop-opacity="1" stop-color="rgb(0%, 39.99939%, 51.945496%)" offset="0.511719"/><stop stop-opacity="1" stop-color="rgb(0%, 39.723206%, 51.689148%)" offset="0.515625"/><stop stop-opacity="1" stop-color="rgb(0%, 39.447021%, 51.4328%)" offset="0.519531"/><stop stop-opacity="1" stop-color="rgb(0%, 39.170837%, 51.176453%)" offset="0.523438"/><stop stop-opacity="1" stop-color="rgb(0%, 38.894653%, 50.920105%)" offset="0.527344"/><stop stop-opacity="1" stop-color="rgb(0%, 38.619995%, 50.663757%)" offset="0.53125"/><stop stop-opacity="1" stop-color="rgb(0%, 38.343811%, 50.40741%)" offset="0.535156"/><stop stop-opacity="1" stop-color="rgb(0%, 38.067627%, 50.151062%)" offset="0.539062"/><stop stop-opacity="1" stop-color="rgb(0%, 37.791443%, 49.894714%)" offset="0.542969"/><stop stop-opacity="1" stop-color="rgb(0%, 37.515259%, 49.638367%)" offset="0.546875"/><stop stop-opacity="1" stop-color="rgb(0%, 37.239075%, 49.382019%)" offset="0.550781"/><stop stop-opacity="1" stop-color="rgb(0%, 36.962891%, 49.125671%)" offset="0.554688"/><stop stop-opacity="1" stop-color="rgb(0%, 36.686707%, 48.867798%)" offset="0.558594"/><stop stop-opacity="1" stop-color="rgb(0%, 36.410522%, 48.61145%)" offset="0.5625"/><stop stop-opacity="1" stop-color="rgb(0%, 36.134338%, 48.355103%)" offset="0.566406"/><stop stop-opacity="1" stop-color="rgb(0%, 35.858154%, 48.098755%)" offset="0.570313"/><stop stop-opacity="1" stop-color="rgb(0%, 35.58197%, 47.842407%)" offset="0.574219"/><stop stop-opacity="1" stop-color="rgb(0%, 35.307312%, 47.58606%)" offset="0.578125"/><stop stop-opacity="1" stop-color="rgb(0%, 35.031128%, 47.329712%)" offset="0.582031"/><stop stop-opacity="1" stop-color="rgb(0%, 34.754944%, 47.073364%)" offset="0.585938"/><stop stop-opacity="1" stop-color="rgb(0%, 34.47876%, 46.817017%)" offset="0.589844"/><stop stop-opacity="1" stop-color="rgb(0%, 34.202576%, 46.560669%)" offset="0.59375"/><stop stop-opacity="1" stop-color="rgb(0%, 33.926392%, 46.304321%)" offset="0.597656"/><stop stop-opacity="1" stop-color="rgb(0%, 33.650208%, 46.047974%)" offset="0.601562"/><stop stop-opacity="1" stop-color="rgb(0%, 33.374023%, 45.791626%)" offset="0.605469"/><stop stop-opacity="1" stop-color="rgb(0%, 33.097839%, 45.535278%)" offset="0.609375"/><stop stop-opacity="1" stop-color="rgb(0%, 32.821655%, 45.278931%)" offset="0.613281"/><stop stop-opacity="1" stop-color="rgb(0%, 32.546997%, 45.022583%)" offset="0.617188"/><stop stop-opacity="1" stop-color="rgb(0%, 32.270813%, 44.766235%)" offset="0.621094"/><stop stop-opacity="1" stop-color="rgb(0%, 31.994629%, 44.509888%)" offset="0.625"/><stop stop-opacity="1" stop-color="rgb(0%, 31.718445%, 44.25354%)" offset="0.628906"/><stop stop-opacity="1" stop-color="rgb(0%, 31.442261%, 43.997192%)" offset="0.632813"/><stop stop-opacity="1" stop-color="rgb(0%, 31.166077%, 43.739319%)" offset="0.636719"/><stop stop-opacity="1" stop-color="rgb(0%, 30.889893%, 43.482971%)" offset="0.640625"/><stop stop-opacity="1" stop-color="rgb(0%, 30.613708%, 43.226624%)" offset="0.644531"/><stop stop-opacity="1" stop-color="rgb(0%, 30.337524%, 42.970276%)" offset="0.648438"/><stop stop-opacity="1" stop-color="rgb(0%, 30.06134%, 42.713928%)" offset="0.652344"/><stop stop-opacity="1" stop-color="rgb(0%, 29.785156%, 42.457581%)" offset="0.65625"/><stop stop-opacity="1" stop-color="rgb(0%, 29.508972%, 42.201233%)" offset="0.660156"/><stop stop-opacity="1" stop-color="rgb(0%, 29.234314%, 41.944885%)" offset="0.664062"/><stop stop-opacity="1" stop-color="rgb(0%, 28.95813%, 41.688538%)" offset="0.667969"/><stop stop-opacity="1" stop-color="rgb(0%, 28.681946%, 41.43219%)" offset="0.671875"/><stop stop-opacity="1" stop-color="rgb(0%, 28.405762%, 41.175842%)" offset="0.675781"/><stop stop-opacity="1" stop-color="rgb(0%, 28.129578%, 40.919495%)" offset="0.679688"/><stop stop-opacity="1" stop-color="rgb(0%, 27.853394%, 40.663147%)" offset="0.683594"/><stop stop-opacity="1" stop-color="rgb(0%, 27.577209%, 40.406799%)" offset="0.6875"/><stop stop-opacity="1" stop-color="rgb(0%, 27.301025%, 40.150452%)" offset="0.691406"/><stop stop-opacity="1" stop-color="rgb(0%, 27.024841%, 39.894104%)" offset="0.695313"/><stop stop-opacity="1" stop-color="rgb(0%, 26.748657%, 39.637756%)" offset="0.699219"/><stop stop-opacity="1" stop-color="rgb(0%, 26.473999%, 39.381409%)" offset="0.703125"/><stop stop-opacity="1" stop-color="rgb(0%, 26.197815%, 39.123535%)" offset="0.707031"/><stop stop-opacity="1" stop-color="rgb(0%, 25.921631%, 38.867188%)" offset="0.710938"/><stop stop-opacity="1" stop-color="rgb(0%, 25.645447%, 38.61084%)" offset="0.714844"/><stop stop-opacity="1" stop-color="rgb(0%, 25.369263%, 38.354492%)" offset="0.71875"/><stop stop-opacity="1" stop-color="rgb(0%, 25.093079%, 38.098145%)" offset="0.722656"/><stop stop-opacity="1" stop-color="rgb(0%, 24.816895%, 37.841797%)" offset="0.726562"/><stop stop-opacity="1" stop-color="rgb(0%, 24.54071%, 37.585449%)" offset="0.730469"/><stop stop-opacity="1" stop-color="rgb(0%, 24.264526%, 37.329102%)" offset="0.734375"/><stop stop-opacity="1" stop-color="rgb(0%, 23.988342%, 37.072754%)" offset="0.738281"/><stop stop-opacity="1" stop-color="rgb(0%, 23.712158%, 36.816406%)" offset="0.742188"/><stop stop-opacity="1" stop-color="rgb(0%, 23.435974%, 36.560059%)" offset="0.746094"/><stop stop-opacity="1" stop-color="rgb(0%, 23.161316%, 36.303711%)" offset="0.75"/><stop stop-opacity="1" stop-color="rgb(0%, 22.885132%, 36.047363%)" offset="0.753906"/><stop stop-opacity="1" stop-color="rgb(0%, 22.608948%, 35.791016%)" offset="0.757812"/><stop stop-opacity="1" stop-color="rgb(0%, 22.332764%, 35.534668%)" offset="0.761719"/><stop stop-opacity="1" stop-color="rgb(0%, 22.05658%, 35.27832%)" offset="0.765625"/><stop stop-opacity="1" stop-color="rgb(0%, 21.780396%, 35.021973%)" offset="0.769531"/><stop stop-opacity="1" stop-color="rgb(0%, 21.504211%, 34.765625%)" offset="0.773438"/><stop stop-opacity="1" stop-color="rgb(0%, 21.228027%, 34.509277%)" offset="0.777344"/><stop stop-opacity="1" stop-color="rgb(0%, 20.951843%, 34.25293%)" offset="0.78125"/><stop stop-opacity="1" stop-color="rgb(0%, 20.675659%, 33.995056%)" offset="0.785156"/><stop stop-opacity="1" stop-color="rgb(0%, 20.399475%, 33.738708%)" offset="0.789062"/><stop stop-opacity="1" stop-color="rgb(0%, 20.393372%, 33.734131%)" offset="0.796875"/><stop stop-opacity="1" stop-color="rgb(0%, 20.388794%, 33.729553%)" offset="0.8125"/><stop stop-opacity="1" stop-color="rgb(0%, 20.388794%, 33.729553%)" offset="0.875"/><stop stop-opacity="1" stop-color="rgb(0%, 20.388794%, 33.729553%)" offset="0.969699"/><stop stop-opacity="1" stop-color="rgb(0%, 20.388794%, 33.729553%)" offset="1"/></linearGradient><clipPath id="a020e72165"><path d="M 460.617188 637.988281 L 953 637.988281 L 953 862.011719 L 460.617188 862.011719 Z M 460.617188 637.988281 " clip-rule="nonzero"/></clipPath><clipPath id="e933dee036"><path d="M 572.625 637.988281 L 840.878906 637.988281 C 902.742188 637.988281 952.890625 688.136719 952.890625 750 C 952.890625 811.863281 902.742188 862.011719 840.878906 862.011719 L 572.625 862.011719 C 510.765625 862.011719 460.617188 811.863281 460.617188 750 C 460.617188 688.136719 510.765625 637.988281 572.625 637.988281 Z M 572.625 637.988281 " clip-rule="nonzero"/></clipPath><clipPath id="6dbb8b2dbf"><path d="M 0.617188 0.988281 L 493 0.988281 L 493 225.011719 L 0.617188 225.011719 Z M 0.617188 0.988281 " clip-rule="nonzero"/></clipPath><clipPath id="a20cb6c177"><path d="M 112.625 0.988281 L 380.878906 0.988281 C 442.742188 0.988281 492.890625 51.136719 492.890625 113 C 492.890625 174.863281 442.742188 225.011719 380.878906 225.011719 L 112.625 225.011719 C 50.765625 225.011719 0.617188 174.863281 0.617188 113 C 0.617188 51.136719 50.765625 0.988281 112.625 0.988281 Z M 112.625 0.988281 " clip-rule="nonzero"/></clipPath><clipPath id="107ab6bbd8"><rect x="0" width="493" y="0" height="226"/></clipPath><clipPath id="76a88bb5eb"><path d="M 705 717.226562 L 755 717.226562 L 755 805.726562 L 705 805.726562 Z M 705 717.226562 " clip-rule="nonzero"/></clipPath><clipPath id="9ab6f3303a"><path d="M 665.332031 722 L 703 722 L 703 790 L 665.332031 790 Z M 665.332031 722 " clip-rule="nonzero"/></clipPath><clipPath id="b5f9e24f18"><path d="M 674.464844 722.589844 C 673.621094 726.828125 675.742188 731.199219 678.792969 734.253906 C 681.84375 737.304688 685.75 739.335938 689.476562 741.515625 C 693.207031 743.699219 696.925781 746.179688 699.277344 749.8125 C 701.316406 752.96875 702.144531 756.75 702.574219 760.488281 C 703.09375 765.007812 703.023438 769.765625 701.578125 774.03125 C 700.535156 771.464844 699.171875 769 697.613281 766.707031 C 694.5625 762.183594 690.804688 758.191406 687.070312 754.226562 C 682.699219 749.589844 678.335938 744.957031 673.964844 740.320312 C 678.484375 748.800781 685.492188 755.625 691.421875 763.195312 C 697.351562 770.761719 702.398438 779.792969 701.84375 789.386719 C 701.402344 784.480469 697.421875 780.585938 693.101562 778.210938 C 688.785156 775.835938 683.9375 774.515625 679.671875 772.035156 C 671.617188 767.320312 666.199219 758.386719 665.777344 749.070312 C 665.355469 739.652344 669.65625 730.699219 674.464844 722.589844 Z M 674.464844 722.589844 " clip-rule="nonzero"/></clipPath><linearGradient x1="-1204.20996" gradientTransform="matrix(-0.0879491, 0, 0, 0.0879491, 578.398748, 717.225778)" y1="60.999499" x2="-1204.20996" gradientUnits="userSpaceOnUse" y2="820.499529" id="9c28f0bebe"><stop stop-opacity="1" stop-color="rgb(1.266479%, 57.647705%, 65.795898%)" offset="0"/><stop stop-opacity="1" stop-color="rgb(1.306152%, 57.597351%, 65.667725%)" offset="0.0625"/><stop stop-opacity="1" stop-color="rgb(1.387024%, 57.496643%, 65.409851%)" offset="0.125"/><stop stop-opacity="1" stop-color="rgb(1.469421%, 57.395935%, 65.153503%)" offset="0.1875"/><stop stop-opacity="1" stop-color="rgb(1.550293%, 57.295227%, 64.89563%)" offset="0.25"/><stop stop-opacity="1" stop-color="rgb(1.63269%, 57.192993%, 64.637756%)" offset="0.3125"/><stop stop-opacity="1" stop-color="rgb(1.713562%, 57.092285%, 64.381409%)" offset="0.375"/><stop stop-opacity="1" stop-color="rgb(1.794434%, 56.991577%, 64.123535%)" offset="0.4375"/><stop stop-opacity="1" stop-color="rgb(1.876831%, 56.890869%, 63.867188%)" offset="0.5"/><stop stop-opacity="1" stop-color="rgb(1.957703%, 56.790161%, 63.609314%)" offset="0.5625"/><stop stop-opacity="1" stop-color="rgb(2.038574%, 56.689453%, 63.35144%)" offset="0.625"/><stop stop-opacity="1" stop-color="rgb(2.120972%, 56.587219%, 63.095093%)" offset="0.6875"/><stop stop-opacity="1" stop-color="rgb(2.201843%, 56.486511%, 62.837219%)" offset="0.75"/><stop stop-opacity="1" stop-color="rgb(2.282715%, 56.385803%, 62.580872%)" offset="0.8125"/><stop stop-opacity="1" stop-color="rgb(2.365112%, 56.285095%, 62.322998%)" offset="0.875"/><stop stop-opacity="1" stop-color="rgb(2.445984%, 56.184387%, 62.065125%)" offset="0.9375"/><stop stop-opacity="1" stop-color="rgb(2.526855%, 56.082153%, 61.808777%)" offset="1"/></linearGradient></defs><g clip-path="url(#76a88bb5eb)"><path fill="#2d473e" d="M 743.292969 717.226562 C 744.410156 722.820312 741.613281 728.589844 737.585938 732.617188 C 733.558594 736.652344 728.40625 739.328125 723.488281 742.203125 C 718.5625 745.078125 713.648438 748.359375 710.558594 753.152344 C 707.867188 757.320312 706.769531 762.316406 706.207031 767.242188 C 705.503906 773.222656 705.597656 779.492188 707.5 785.121094 C 708.878906 781.726562 710.683594 778.480469 712.730469 775.449219 C 716.761719 769.476562 721.71875 764.207031 726.652344 758.964844 C 732.421875 752.84375 738.183594 746.734375 743.953125 740.613281 C 737.980469 751.796875 728.730469 760.820312 720.910156 770.804688 C 713.09375 780.796875 706.425781 792.722656 707.15625 805.386719 C 707.738281 798.902344 712.996094 793.757812 718.703125 790.628906 C 724.410156 787.496094 730.804688 785.746094 736.425781 782.476562 C 747.058594 776.285156 754.207031 764.480469 754.761719 752.183594 C 755.324219 739.75 749.652344 727.921875 743.292969 717.226562 Z M 743.292969 717.226562 " fill-opacity="1" fill-rule="nonzero"/></g><g clip-path="url(#9ab6f3303a)"><g clip-path="url(#b5f9e24f18)"><path fill="url(#9c28f0bebe)" d="M 703.09375 722.589844 L 703.09375 789.386719 L 665.355469 789.386719 L 665.355469 722.589844 Z M 703.09375 722.589844 " fill-rule="nonzero"/></g></g></svg>