<svg xmlns="http://www.w3.org/2000/svg" width="1024" height="500" viewBox="0 0 1024 500">
  <defs>
    <linearGradient id="background" x1="0" y1="0" x2="1" y2="1">
      <stop offset="0" stop-color="#07111f"/>
      <stop offset="0.58" stop-color="#0b2135"/>
      <stop offset="1" stop-color="#0e7490"/>
    </linearGradient>
    <linearGradient id="tile" x1="0" y1="0" x2="1" y2="1">
      <stop offset="0" stop-color="#a5f3fc"/>
      <stop offset="0.48" stop-color="#22d3ee"/>
      <stop offset="1" stop-color="#0891b2"/>
    </linearGradient>
    <radialGradient id="glow" cx="22%" cy="45%" r="60%">
      <stop offset="0" stop-color="#22d3ee" stop-opacity="0.24"/>
      <stop offset="1" stop-color="#22d3ee" stop-opacity="0"/>
    </radialGradient>
    <pattern id="grid" width="32" height="32" patternUnits="userSpaceOnUse">
      <path d="M32 0H0V32" fill="none" stroke="#67e8f9" stroke-opacity="0.055"/>
    </pattern>
  </defs>
  <rect width="1024" height="500" fill="url(#background)"/>
  <rect width="1024" height="500" fill="url(#grid)"/>
  <rect width="1024" height="500" fill="url(#glow)"/>
  <circle cx="934" cy="82" r="190" fill="#22d3ee" opacity="0.055"/>
  <circle cx="912" cy="430" r="270" fill="#0ea5e9" opacity="0.05"/>
  <g transform="translate(66 82)">
    <rect width="336" height="336" rx="104" fill="#07111f" stroke="#67e8f9" stroke-opacity="0.18"/>
    <rect x="54" y="54" width="228" height="228" rx="70" fill="url(#tile)"/>
    <path d="M226 114c-22-27-90-23-106 14-14 32 14 46 51 51 39 5 63 18 51 50-14 36-90 32-114-1" fill="none" stroke="#07111f" stroke-width="31" stroke-linecap="round" stroke-linejoin="round"/>
    <circle cx="259" cy="78" r="7" fill="#cffafe" opacity="0.9"/>
    <circle cx="79" cy="258" r="5" fill="#0e7490" opacity="0.85"/>
  </g>
  <g transform="translate(466 138)" fill="#f8fafc">
    <text x="0" y="68" font-family="Arial, Helvetica, sans-serif" font-size="70" font-weight="700" letter-spacing="-2">Senzilytics</text>
    <text x="2" y="116" font-family="Arial, Helvetica, sans-serif" font-size="23" font-weight="700" letter-spacing="4" fill="#67e8f9">EHS INTELLIGENCE</text>
    <text x="2" y="174" font-family="Arial, Helvetica, sans-serif" font-size="28" font-weight="600">Work safely, wherever work happens.</text>
    <text x="2" y="220" font-family="Arial, Helvetica, sans-serif" font-size="19" fill="#cbd5e1">Secure  •  Offline-ready  •  Tenant-isolated</text>
  </g>
</svg>
